<?xml version="1.0" encoding="utf-8"?>
<!-- Generator: Adobe Illustrator 25.4.1, SVG Export Plug-In . SVG Version: 6.00 Build 0)  -->
<svg version="1.1" id="Layer_1" xmlns="http://www.w3.org/2000/svg" xmlns:xlink="http://www.w3.org/1999/xlink" x="0px" y="0px"
	 viewBox="0 0 265.3 205.9" style="enable-background:new 0 0 265.3 205.9;" xml:space="preserve">
<style type="text/css">
	.st0{fill:#FFFFFF;}
	.st1{fill:#9C9C9C;}
</style>
<g>
	<g>
		<g>
			<g>
				<g>
					<path d="M261.5,183.8H3.9v-34h257.6V183.8z M5.3,182.3H260v-31.1H5.3V182.3z"/>
					<path class="st0" d="M262,184.3H3.4v-35H262V184.3z M5.8,181.8h253.7v-30H5.8V181.8z"/>
				</g>
			</g>
			<g>
				<path class="st0" d="M17.7,172.4l-2.1-4.3H14v4.3h-2.1v-10.9h4.3c2.1,0,3.5,1.4,3.5,3.3c0,0.9-0.3,1.6-0.9,2.2
					c-0.3,0.3-0.5,0.4-1.1,0.7l2.4,4.7H17.7z M16,166.3c0.9,0,1.5-0.6,1.5-1.4c0-0.9-0.6-1.4-1.5-1.4h-2v2.9H16z"/>
				<path class="st0" d="M21.9,172.4v-10.9h7.2v1.9H24v2.6h4.3v1.9H24v2.6h5.1v1.9H21.9z"/>
				<path class="st0" d="M35.7,163.5c-0.4-0.1-0.8-0.2-1.3-0.2c-1.1,0-1.8,0.5-1.8,1.4c0,0.7,0.5,1.1,1.3,1.2l1.3,0.2
					c2,0.3,2.9,1.3,2.9,3.1c0,2.1-1.6,3.3-4.2,3.3c-0.9,0-1.7-0.1-2.3-0.4c-0.5-0.2-0.8-0.4-1.5-1l1.4-1.4c0.4,0.4,0.6,0.5,0.9,0.6
					c0.5,0.2,1,0.3,1.7,0.3c1.3,0,1.9-0.5,1.9-1.4c0-0.8-0.4-1.2-1.3-1.3l-1.3-0.2c-1.9-0.3-2.9-1.3-2.9-3c0-2.1,1.5-3.3,3.9-3.3
					c0.7,0,1.4,0.1,2,0.4c0.5,0.2,0.8,0.4,1.4,0.9l-1.3,1.3C36.2,163.7,36,163.6,35.7,163.5z"/>
				<path class="st0" d="M44.3,163.4v9h-2.1v-9h-2.8v-1.9h7.8v1.9H44.3z"/>
				<path class="st0" d="M55.1,172.4l-0.6-1.9h-3.9l-0.7,1.9h-2.2l4-10.9h1.7l4,10.9H55.1z M52.6,164.7l-1.4,4h2.7L52.6,164.7z"/>
				<path class="st0" d="M66.5,168.7c0,2.2-1.7,3.8-4,3.8c-2.3,0-4-1.6-4-3.8v-7.2h2.1v7.1c0,1.2,0.7,2,1.9,2c1.2,0,1.9-0.8,1.9-2
					v-7.1h2.1V168.7z"/>
				<path class="st0" d="M74.7,172.4l-2.1-4.3H71v4.3h-2.1v-10.9h4.3c2.1,0,3.5,1.4,3.5,3.3c0,0.9-0.3,1.6-0.9,2.2
					c-0.3,0.3-0.5,0.4-1.1,0.7l2.4,4.7H74.7z M73,166.3c0.9,0,1.5-0.6,1.5-1.4c0-0.9-0.6-1.4-1.5-1.4h-2v2.9H73z"/>
				<path class="st0" d="M85.1,172.4l-0.6-1.9h-3.9l-0.7,1.9h-2.2l4-10.9h1.7l4,10.9H85.1z M82.6,164.7l-1.4,4h2.7L82.6,164.7z"/>
				<path class="st0" d="M95.1,172.4l-4.3-6.7v6.7h-2.1v-10.9h1.9l4.3,6.7v-6.7H97v10.9H95.1z"/>
				<path class="st0" d="M103.7,163.4v9h-2.1v-9h-2.8v-1.9h7.8v1.9H103.7z"/>
				<path class="st0" d="M107.9,169v-1.9h4.7v1.9H107.9z"/>
				<path class="st0" d="M119,163.4v9h-2.1v-9H114v-1.9h7.8v1.9H119z"/>
				<path class="st0" d="M123.6,172.4v-10.9h7.2v1.9h-5.1v2.6h4.3v1.9h-4.3v2.6h5.1v1.9H123.6z"/>
				<path class="st0" d="M138.6,172.4l-2.1-4.3H135v4.3h-2.1v-10.9h4.3c2.1,0,3.5,1.4,3.5,3.3c0,0.9-0.3,1.6-0.9,2.2
					c-0.3,0.3-0.5,0.4-1.1,0.7l2.4,4.7H138.6z M137,166.3c0.9,0,1.5-0.6,1.5-1.4c0-0.9-0.6-1.4-1.5-1.4h-2v2.9H137z"/>
				<path class="st0" d="M148.6,172.4l-2.1-4.3H145v4.3h-2.1v-10.9h4.3c2.1,0,3.5,1.4,3.5,3.3c0,0.9-0.3,1.6-0.9,2.2
					c-0.3,0.3-0.5,0.4-1.1,0.7l2.4,4.7H148.6z M147,166.3c0.9,0,1.5-0.6,1.5-1.4c0-0.9-0.6-1.4-1.5-1.4h-2v2.9H147z"/>
				<path class="st0" d="M159,172.4l-0.6-1.9h-3.9l-0.7,1.9h-2.2l4-10.9h1.7l4,10.9H159z M156.5,164.7l-1.4,4h2.7L156.5,164.7z"/>
				<path class="st0" d="M167.9,172.2c-0.5,0.2-1,0.3-1.6,0.3c-1.2,0-2.2-0.4-3-1.2c-1.1-1.1-1.1-2.5-1.1-4.3v-0.4
					c0-2.2,0.2-3,1.1-3.9c0.8-0.8,1.8-1.2,3-1.2c0.6,0,1.1,0.1,1.6,0.3c0.5,0.2,0.8,0.4,1.4,1l-1.4,1.4c-0.6-0.6-1-0.8-1.6-0.8
					c-0.6,0-1,0.2-1.4,0.6c-0.5,0.6-0.5,1.7-0.5,2.8v0.6c0,1.7,0.1,2.3,0.5,2.8c0.3,0.4,0.8,0.6,1.4,0.6c0.6,0,1-0.2,1.6-0.8
					l1.4,1.4C168.7,171.8,168.4,172,167.9,172.2z"/>
				<path class="st0" d="M171.2,172.4v-10.9h7.2v1.9h-5.1v2.6h4.3v1.9h-4.3v2.6h5.1v1.9H171.2z"/>
				<path class="st0" d="M180.1,169v-1.9h4.7v1.9H180.1z"/>
				<path class="st0" d="M193.3,172.4l-2.8-5l-1.4,1.7v3.3H187v-10.9h2.1v4.7l3.8-4.7h2.6l-3.6,4.3l3.9,6.6H193.3z"/>
				<path class="st0" d="M203.4,172.4l-0.6-1.9h-3.9l-0.7,1.9H196l4-10.9h1.7l4,10.9H203.4z M200.8,164.7l-1.4,4h2.7L200.8,164.7z"
					/>
				<path class="st0" d="M212.7,172.4l-2.1-4.3h-1.5v4.3h-2.1v-10.9h4.3c2.1,0,3.5,1.4,3.5,3.3c0,0.9-0.3,1.6-0.9,2.2
					c-0.3,0.3-0.5,0.4-1.1,0.7l2.4,4.7H212.7z M211.1,166.3c0.9,0,1.5-0.6,1.5-1.4c0-0.9-0.6-1.4-1.5-1.4h-2v2.9H211.1z"/>
				<path class="st0" d="M223.1,172.4l-0.6-1.9h-3.9l-0.7,1.9h-2.2l4-10.9h1.7l4,10.9H223.1z M220.6,164.7l-1.4,4h2.7L220.6,164.7z"
					/>
				<path class="st0" d="M233.3,171.3c-0.8,0.8-1.8,1.2-2.9,1.2s-2.2-0.4-3-1.2c-1.1-1.2-1.1-3-1.1-4.2v-0.6c0-2.2,0.2-3,1.1-3.9
					c0.8-0.8,1.8-1.2,3-1.2c1.2,0,2.2,0.4,2.9,1.2s1.1,1.8,1.1,3.6v0.8C234.4,168.5,234.5,170.1,233.3,171.3z M231.7,163.9
					c-0.3-0.4-0.8-0.6-1.4-0.6s-1,0.2-1.4,0.6c-0.5,0.5-0.5,1.6-0.5,2.9c0,1.3-0.1,2.6,0.5,3.2c0.4,0.4,0.8,0.6,1.4,0.6
					s1-0.2,1.4-0.6c0.4-0.5,0.5-1,0.5-3.3C232.3,165,232.2,164.4,231.7,163.9z"/>
				<path class="st0" d="M242.9,172.4l-2.8-5l-1.4,1.7v3.3h-2.1v-10.9h2.1v4.7l3.8-4.7h2.6l-3.6,4.3l3.9,6.6H242.9z"/>
				<path class="st0" d="M246.7,172.4v-10.9h7.2v1.9h-5.1v2.6h4.3v1.9h-4.3v2.6h5.1v1.9H246.7z"/>
			</g>
		</g>
		<g>
			<g>
				<path class="st1" d="M124,74.2c0-0.6-0.1-0.8-0.1-1.1c0-7,0-14,0-20.9c0-2.7,0.9-5.3,3-7.1c2.9-2.6,6.4-3,9.9-2.1
					c3.4,0.9,5.3,3.5,6.1,6.8c0.3,1.3,0.1,2.7,0.1,4c0,0.9,0.3,1.1,1.1,1.1c5.9,0,11.7,0,17.6,0c0.8,0,1.1-0.3,1.1-1
					c0.1-4.9-0.7-9.5-3.2-13.8c-1.2-2-1.2-2,0.3-3.7c2.5-2.9,5.5-5.1,8.9-6.8c4.4-2.3,9.2-3.3,14.2-3.4c6.4-0.1,12.5,1,18,4.5
					c5,3.2,9.2,7.1,11.5,12.8c1.1,2.7,1.8,5.5,1.8,8.4c0,20.6,0,41.2,0,61.7c0,4.4-1.4,8.4-3.9,12c-4.5,6.5-10.6,10.7-18.3,12.3
					c-7.1,1.6-14.2,1.2-21.2-1.6c-4.5-1.8-8.2-4.7-11.5-8.2c-0.8-0.8-1.1-1.5-0.3-2.6c3.4-4.9,3.8-10.6,3.8-16.4c0-4.4,0-8.8,0-13.3
					c-0.1-4.8-0.3-9.6-2.3-14.1c-1.5-3.5-3.6-6.6-6.8-8.6c-8.5-5.3-17.3-5.7-26.3-1.3c-0.6,0.3-1.1,0.7-1.6,1
					C125.3,73.4,124.8,73.8,124,74.2z M194.4,82.6C194.4,82.6,194.4,82.6,194.4,82.6c0-9.9,0-19.9,0-29.8c0-1.1,0-2.4-0.5-3.4
					c-1.6-3.8-4.6-5.7-8.5-6.6c-2.1-0.5-4,0.1-6,0.6c-3.6,1-6.9,5.2-6.9,8.9c0,8.4,0,16.7,0,25.1c0,11.3,0,22.7,0,34
					c0,2.6,0.6,5.1,2.5,6.9c4,3.7,8.6,4.6,13.8,2.3c2.5-1.2,5.7-4.8,5.7-7.9C194.3,102.7,194.4,92.6,194.4,82.6z"/>
				<path class="st1" d="M111.5,128.9c-3.7,3.6-7.8,6.3-12.6,8.1c-4.1,1.5-8.4,2.1-12.7,2.1c-4.6,0-9.2-0.6-13.5-2.4
					c-4.6-2-8.5-4.8-11.8-8.6c-2.2-2.5-3.6-5.3-4.6-8.3c-0.5-1.6-0.5-3.3-0.6-5c-0.1-1.8,0-3.7,0-5.7c0.4,0,0.7-0.1,1.1-0.1
					c5.4,0,10.8,0,16.2,0c1.3,0,1.6,0.4,1.5,1.6c-0.3,2.6-0.2,5.2,1.4,7.5c2,2.8,4.8,4.4,8.2,4.5c2.6,0,5.1-0.2,7.7-0.6
					c3-0.4,5.9-3.8,6.4-6.9c0.8-4.3,0.6-8.6-0.1-12.8c-0.4-2.6-1.6-4.9-3.5-6.9c-3-3.1-6.8-4.1-10.9-4.7c-1.8-0.3-3.6-0.4-5.4-0.5
					c0-5,0-9.9,0-14.8c2.1-0.2,4.3-0.4,6.5-0.8c5.7-0.9,10.4-3.3,12.6-9c0.8-2.1,1.1-4.5,1.1-6.7c0.1-3.1-0.1-6.2-0.5-9.2
					c-0.3-2.6-3.7-5.9-6.5-6.4c-3.5-0.7-7-0.9-10.6,0.2c-3.6,1.2-6.9,5.3-6.6,9.1c0.2,3.7,0.2,3.7-3.5,3.7c-4.6,0-9.1,0-13.7,0
					c-0.5,0-0.9,0-1.3,0c-0.7-6.8,0.1-13,4.5-18.4c3-3.7,6.7-6.7,11.1-8.6c3.6-1.6,7.3-2.5,11.3-2.8c4.2-0.3,8.4-0.2,12.4,0.8
					c4.2,1,8.2,2.6,11.6,5.3c1.6,1.2,3.1,2.4,4.4,3.4c-1.5,2.9-2.8,5.4-4,7.9c-1.3,2.8-1.6,5.8-1.6,8.8c0,19.5,0,38.9-0.1,58.4
					c0,6.4,1.5,12.3,5.6,17.4C111.2,128.6,111.3,128.7,111.5,128.9z"/>
				<g>
					<path class="st1" d="M143,102.3c0,3.7-0.1,7.5,0,11.2c0.1,2.9-2.4,6.9-6.1,7.9c-3.8,1-7.2,0.8-10.2-2c-1.9-1.8-2.8-4.1-2.8-6.7
						c-0.1-7,0-14,0-20.9c0-3.8,2.5-7.9,6.1-8.8c5.8-1.5,10.6-0.4,12.9,6.4c0.1,0.4,0.1,0.9,0.1,1.4C143,94.7,143,98.5,143,102.3z"
						/>
				</g>
			</g>
			<g>
				<path class="st0" d="M124,74.2c0-0.6-0.1-0.8-0.1-1.1c0-7,0-14,0-20.9c0-2.7,0.9-5.3,3-7.1c2.9-2.6,6.4-3,9.9-2.1
					c3.4,0.9,5.3,3.5,6.1,6.8c0.3,1.3,0.1,2.7,0.1,4c0,0.9,0.3,1.1,1.1,1.1c5.9,0,11.7,0,17.6,0c0.8,0,1.1-0.3,1.1-1
					c0.1-4.9-0.7-9.5-3.2-13.8c-1.2-2-1.2-2,0.3-3.7c2.5-2.9,5.5-5.1,8.9-6.8c4.4-2.3,9.2-3.3,14.2-3.4c6.4-0.1,12.5,1,18,4.5
					c5,3.2,9.2,7.1,11.5,12.8c1.1,2.7,1.8,5.5,1.8,8.4c0,20.6,0,41.2,0,61.7c0,4.4-1.4,8.4-3.9,12c-4.5,6.5-10.6,10.7-18.3,12.3
					c-7.1,1.6-14.2,1.2-21.2-1.6c-4.5-1.8-8.2-4.7-11.5-8.2c-0.8-0.8-1.1-1.5-0.3-2.6c3.4-4.9,3.8-10.6,3.8-16.4c0-4.4,0-8.8,0-13.3
					c-0.1-4.8-0.3-9.6-2.3-14.1c-1.5-3.5-3.6-6.6-6.8-8.6c-8.5-5.3-17.3-5.7-26.3-1.3c-0.6,0.3-1.1,0.7-1.6,1
					C125.3,73.4,124.8,73.8,124,74.2z M194.4,82.6C194.4,82.6,194.4,82.6,194.4,82.6c0-9.9,0-19.9,0-29.8c0-1.1,0-2.4-0.5-3.4
					c-1.6-3.8-4.6-5.7-8.5-6.6c-2.1-0.5-4,0.1-6,0.6c-3.6,1-6.9,5.2-6.9,8.9c0,8.4,0,16.7,0,25.1c0,11.3,0,22.7,0,34
					c0,2.6,0.6,5.1,2.5,6.9c4,3.7,8.6,4.6,13.8,2.3c2.5-1.2,5.7-4.8,5.7-7.9C194.3,102.7,194.4,92.6,194.4,82.6z"/>
				<path class="st0" d="M111.5,128.9c-3.7,3.6-7.8,6.3-12.6,8.1c-4.1,1.5-8.4,2.1-12.7,2.1c-4.6,0-9.2-0.6-13.5-2.4
					c-4.6-2-8.5-4.8-11.8-8.6c-2.2-2.5-3.6-5.3-4.6-8.3c-0.5-1.6-0.5-3.3-0.6-5c-0.1-1.8,0-3.7,0-5.7c0.4,0,0.7-0.1,1.1-0.1
					c5.4,0,10.8,0,16.2,0c1.3,0,1.6,0.4,1.5,1.6c-0.3,2.6-0.2,5.2,1.4,7.5c2,2.8,4.8,4.4,8.2,4.5c2.6,0,5.1-0.2,7.7-0.6
					c3-0.4,5.9-3.8,6.4-6.9c0.8-4.3,0.6-8.6-0.1-12.8c-0.4-2.6-1.6-4.9-3.5-6.9c-3-3.1-6.8-4.1-10.9-4.7c-1.8-0.3-3.6-0.4-5.4-0.5
					c0-5,0-9.9,0-14.8c2.1-0.2,4.3-0.4,6.5-0.8c5.7-0.9,10.4-3.3,12.6-9c0.8-2.1,1.1-4.5,1.1-6.7c0.1-3.1-0.1-6.2-0.5-9.2
					c-0.3-2.6-3.7-5.9-6.5-6.4c-3.5-0.7-7-0.9-10.6,0.2c-3.6,1.2-6.9,5.3-6.6,9.1c0.2,3.7,0.2,3.7-3.5,3.7c-4.6,0-9.1,0-13.7,0
					c-0.5,0-0.9,0-1.3,0c-0.7-6.8,0.1-13,4.5-18.4c3-3.7,6.7-6.7,11.1-8.6c3.6-1.6,7.3-2.5,11.3-2.8c4.2-0.3,8.4-0.2,12.4,0.8
					c4.2,1,8.2,2.6,11.6,5.3c1.6,1.2,3.1,2.4,4.4,3.4c-1.5,2.9-2.8,5.4-4,7.9c-1.3,2.8-1.6,5.8-1.6,8.8c0,19.5,0,38.9-0.1,58.4
					c0,6.4,1.5,12.3,5.6,17.4C111.2,128.6,111.3,128.7,111.5,128.9z"/>
				<path class="st0" d="M143,102.3c0,3.7-0.1,7.5,0,11.2c0.1,2.9-2.4,6.9-6.1,7.9c-3.8,1-7.2,0.8-10.2-2c-1.9-1.8-2.8-4.1-2.8-6.7
					c-0.1-7,0-14,0-20.9c0-3.8,2.5-7.9,6.1-8.8c5.8-1.5,10.6-0.4,12.9,6.4c0.1,0.4,0.1,0.9,0.1,1.4C143,94.7,143,98.5,143,102.3z"/>
			</g>
		</g>
	</g>
</g>
</svg>
